<svg width="56" height="56" xmlns="http://www.w3.org/2000/svg" xmlns:xlink="http://www.w3.org/1999/xlink"><defs><rect id="a" x="0" y="0" width="46" height="34" rx="3"/></defs><g transform="translate(5 11)" fill="none" fill-rule="evenodd"><mask id="b" fill="#fff"><use xlink:href="#a"/></mask><rect stroke="#CCC" x=".5" y=".5" width="45" height="33" rx="3"/><path d="M45.5 10.5V32c0 .414-.168.79-.44 1.06a1.49 1.49 0 0 1-1.06.44H2a1.49 1.49 0 0 1-1.06-.44A1.495 1.495 0 0 1 .5 32V10.5h45z" stroke="#CCC" fill="#F2F2F2" mask="url(#b)"/><rect stroke="#DDD" fill="#FFF" mask="url(#b)" x="3.5" y="13.5" width="39" height="17" rx="1"/><rect fill="#333" mask="url(#b)" x="3" y="3" width="5" height="2" rx="1"/><rect fill="#999" mask="url(#b)" x="3" y="6" width="13" height="2" rx="1"/></g></svg>